Coordinates
version=1
nRows=16
nColumns=22
inDegrees=yes

Units are S.I. units (second, meters, Newtons, ...)
If the header above contains a line with 'inDegrees', this indicates whether rotational values are in degrees (yes) or radians (no).

endheader
time	pelvis_tilt	pelvis_list	pelvis_rotation	pelvis_tx	pelvis_ty	pelvis_tz	hip_flexion_r	hip_adduction_r	hip_rotation_r	knee_angle_r	ankle_angle_r	subtalar_angle_r	hip_flexion_l	hip_adduction_l	hip_rotation_l	knee_angle_l	ankle_angle_l	subtalar_angle_l	lumbar_extension	lumbar_bending	lumbar_rotation
      0.01000000	      4.04733753	     -2.96075787	      4.70995913	     -1.39585485	      0.95410743	      0.03485901	     -6.89622463	      6.00736756	    -10.07844793	     -4.63228845	      8.23394692	      1.71844488	     -2.02992459	     -4.90273008	    -11.27517985	    -15.59920342	     20.46844327	     -5.46940783	    -10.33167622	      3.90092203	     -8.11316657
      0.02000000	      4.11070451	     -2.96469029	      4.73359274	     -1.39603315	      0.95420054	      0.03463422	     -6.95110864	      6.00821372	    -10.07871272	     -4.63493120	      8.25269089	      1.73464827	     -2.09131748	     -4.89390167	    -11.21656840	    -15.58614658	     20.45780860	     -5.51173866	    -10.39860020	      3.92916094	     -8.15621818
      0.03000000	      4.13747953	     -2.96277291	      4.73618085	     -1.39627847	      0.95424397	      0.03440835	     -6.93469594	      5.99055534	    -10.06600870	     -4.69153297	      8.24044201	      1.73372356	     -2.10154741	     -4.87808149	    -11.21517721	    -15.59379884	     20.45747932	     -5.51708792	    -10.42766414	      3.94561428	     -8.18291598
      0.04000000	      4.17305852	     -2.96246124	      4.74545162	     -1.39655216	      0.95429925	      0.03413720	     -6.91806666	      5.97259261	    -10.07068447	     -4.76402782	      8.23456826	      1.73052661	     -2.11705279	     -4.86303546	    -11.20997386	    -15.60418552	     20.45408191	     -5.52402534	    -10.46817803	      3.96706388	     -8.21018270
      0.05000000	      4.23277261	     -2.95286554	      4.76948573	     -1.39681701	      0.95439003	      0.03380770	     -6.91598815	      5.94297305	    -10.16895484	     -4.86197872	      8.25984262	      1.71737325	     -2.16486314	     -4.83739516	    -11.19721649	    -15.59985195	     20.44507060	     -5.54653821	    -10.53303038	      3.98276066	     -8.23544242
      0.06000000	      4.26808105	     -2.95085187	      4.78055128	     -1.39710510	      0.95444796	      0.03347969	     -6.89862548	      5.92069983	    -10.15556629	     -4.93341726	      8.25652247	      1.71211163	     -2.18085609	     -4.81634420	    -11.18686782	    -15.60600245	     20.44354193	     -5.55044065	    -10.56928610	      4.00670838	     -8.27642154
      0.07000000	      4.33646858	     -2.93351579	      4.79597651	     -1.39735625	      0.95455771	      0.03310989	     -6.89959402	      5.87822956	    -10.25405076	     -5.04699644	      8.28886440	      1.69071600	     -2.24968185	     -4.77635942	    -11.17108145	    -15.58419971	     20.42943247	     -5.57160663	    -10.63954729	      4.01664970	     -8.30231292
      0.08000000	      4.39545035	     -2.91829477	      4.79871867	     -1.39759468	      0.95465610	      0.03274460	     -6.89901259	      5.83693082	    -10.28759861	     -5.14556181	      8.31257032	      1.67059784	     -2.31294273	     -4.73552313	    -11.15805900	    -15.55797776	     20.41495773	     -5.59244842	    -10.69594277	      4.02874644	     -8.33564917
      0.09000000	      4.42943313	     -2.91910784	      4.79278462	     -1.39782561	      0.95471270	      0.03238602	     -6.88144534	      5.81239334	    -10.26812548	     -5.21990474	      8.30757027	      1.66536671	     -2.33917792	     -4.71254509	    -11.15972836	    -15.55331905	     20.41377652	     -5.59614321	    -10.72060213	      4.06073508	     -8.38330009
      0.10000000	      4.49505207	     -2.90188436	      4.77990042	     -1.39800857	      0.95481921	      0.03202680	     -6.87905683	      5.76446496	    -10.33077900	     -5.34289161	      8.34223261	      1.64613787	     -2.42486132	     -4.66781294	    -11.16979440	    -15.51033048	     20.39944255	     -5.61737117	    -10.77918412	      4.06929862	     -8.39919817
      0.11000000	      4.52467228	     -2.90516130	      4.77222017	     -1.39820218	      0.95486530	      0.03167623	     -6.86385324	      5.74408416	    -10.30881465	     -5.40622631	      8.34240052	      1.64137920	     -2.45113104	     -4.64716753	    -11.17253491	    -15.50172167	     20.39797808	     -5.62165645	    -10.79604689	      4.10367695	     -8.45693649
      0.12000000	      4.57656717	     -2.89917470	      4.77225092	     -1.39838239	      0.95494283	      0.03131700	     -6.85882074	      5.71179632	    -10.35921310	     -5.50351151	      8.37700460	      1.62391609	     -2.51232290	     -4.61728352	    -11.17145753	    -15.47234679	     20.39166754	     -5.64212128	    -10.84087316	      4.12724468	     -8.50148459
      0.13000000	      4.59894688	     -2.90658775	      4.77063769	     -1.39857790	      0.95497377	      0.03098800	     -6.84278685	      5.69840853	    -10.34064931	     -5.55264927	      8.37516964	      1.61990112	     -2.52725459	     -4.60401795	    -11.17232643	    -15.46814551	     20.39212653	     -5.64589460	    -10.85428495	      4.16382918	     -8.56362467
      0.14000000	      4.62238875	     -2.91710813	      4.77894398	     -1.39878874	      0.95500344	      0.03066288	     -6.82673887	      5.69007180	    -10.33847260	     -5.60329754	      8.37486905	      1.61539747	     -2.53762828	     -4.59698665	    -11.16883483	    -15.46931037	     20.39391362	     -5.65025040	    -10.87345014	      4.20301522	     -8.62741330
      0.15000000	      4.65214950	     -2.93492903	      4.82686882	     -1.39902274	      0.95503148	      0.03029345	     -6.81890635	      5.69390935	    -10.42319235	     -5.64906574	      8.38611038	      1.60328838	     -2.53204732	     -4.60405501	    -11.12840760	    -15.49782496	     20.40785235	     -5.66431469	    -10.90200104	      4.25469350	     -8.72033530
      0.16000000	      4.66797885	     -2.94352836	      4.83356427	     -1.39925587	      0.95505181	      0.02999494	     -6.80300796	      5.68474106	    -10.41812053	     -5.68120462	      8.38084056	      1.60118815	     -2.53109191	     -4.59590211	    -11.11985511	    -15.50439079	     20.41017056	     -5.66733375	    -10.92072289	      4.28738908	     -8.77549582
